<svg xmlns="http://www.w3.org/2000/svg" xmlns:xlink="http://www.w3.org/1999/xlink" width="500" zoomAndPan="magnify" viewBox="0 0 375 374.999991" height="500" preserveAspectRatio="xMidYMid meet" version="1.0"><defs><g/><clipPath id="94b601d70c"><path d="M 3 29 L 372 29 L 372 352.8125 L 3 352.8125 Z M 3 29 " clip-rule="nonzero"/></clipPath><clipPath id="4a8f259e05"><path d="M 193.449219 32.601562 L 370.46875 342.394531 C 371.703125 344.546875 371.691406 347.195312 370.449219 349.34375 C 369.203125 351.488281 366.90625 352.8125 364.425781 352.8125 L 10.5625 352.8125 C 8.082031 352.8125 5.789062 351.488281 4.542969 349.34375 C 3.296875 347.195312 3.285156 344.546875 4.519531 342.394531 L 181.539062 32.601562 C 182.761719 30.464844 185.035156 29.148438 187.496094 29.148438 C 189.953125 29.148438 192.226562 30.464844 193.449219 32.601562 Z M 193.449219 32.601562 " clip-rule="nonzero"/></clipPath><clipPath id="615df7a005"><path d="M 152 141.488281 L 223.191406 141.488281 L 223.191406 181.238281 L 152 181.238281 Z M 152 141.488281 " clip-rule="nonzero"/></clipPath></defs><g clip-path="url(#94b601d70c)"><g clip-path="url(#4a8f259e05)"><path stroke-linecap="butt" transform="matrix(0.75, 0, 0, 0.75, -1.435322, 22.184517)" fill="none" stroke-linejoin="miter" d="M 259.846072 13.889395 L 495.872129 426.946714 C 497.517962 429.816506 497.502337 433.347756 495.846087 436.212339 C 494.184629 439.071715 491.122129 440.83734 487.814837 440.83734 L 15.997097 440.83734 C 12.689806 440.83734 9.632514 439.071715 7.971055 436.212339 C 6.309597 433.347756 6.293972 429.816506 7.939805 426.946714 L 243.965862 13.889395 C 245.596071 11.040437 248.627321 9.285228 251.908571 9.285228 C 255.184613 9.285228 258.215863 11.040437 259.846072 13.889395 Z M 259.846072 13.889395 " stroke="#000000" stroke-width="4" stroke-opacity="1" stroke-miterlimit="4"/></g></g><path fill="#100f0d" d="M 187.5625 154.816406 C 183.964844 154.816406 181.039062 157.753906 181.039062 161.363281 C 181.039062 164.976562 183.964844 167.914062 187.5625 167.914062 C 191.164062 167.914062 194.097656 164.976562 194.097656 161.363281 C 194.097656 157.753906 191.164062 154.816406 187.5625 154.816406 " fill-opacity="1" fill-rule="nonzero"/><g clip-path="url(#615df7a005)"><path fill="#100f0d" d="M 218.714844 161.777344 C 218.253906 162.296875 209.488281 172.082031 197.535156 176.125 C 202.148438 172.929688 205.179688 167.585938 205.179688 161.550781 C 205.179688 155.019531 201.632812 149.300781 196.371094 146.234375 C 208.914062 150.011719 218.242188 160.414062 218.714844 160.953125 L 219.082031 161.363281 Z M 156.414062 161.777344 L 156.050781 161.363281 L 156.410156 160.957031 C 156.886719 160.421875 166.1875 150.132812 178.585938 146.300781 C 173.382812 149.382812 169.886719 155.066406 169.886719 161.550781 C 169.886719 167.554688 172.882812 172.867188 177.453125 176.066406 C 165.59375 171.992188 156.871094 162.292969 156.414062 161.777344 Z M 187.535156 175.863281 C 179.664062 175.863281 173.265625 169.441406 173.265625 161.550781 C 173.265625 153.65625 179.664062 147.238281 187.535156 147.238281 C 195.402344 147.238281 201.800781 153.65625 201.800781 161.550781 C 201.800781 169.441406 195.402344 175.863281 187.535156 175.863281 Z M 222.601562 160.238281 L 221.242188 158.703125 C 220.621094 158 205.820312 141.492188 187.566406 141.492188 C 179.929688 141.492188 172.023438 144.308594 164.0625 149.859375 C 158.171875 153.972656 154.3125 158.226562 153.886719 158.703125 L 152.527344 160.242188 C 151.960938 160.882812 151.960938 161.847656 152.527344 162.488281 L 153.890625 164.027344 C 154.304688 164.496094 158.121094 168.726562 164.054688 172.867188 C 172.015625 178.421875 179.925781 181.238281 187.566406 181.238281 C 205.820312 181.238281 220.621094 164.730469 221.242188 164.027344 L 222.601562 162.488281 C 223.171875 161.847656 223.171875 160.882812 222.601562 160.238281 " fill-opacity="1" fill-rule="nonzero"/></g><g fill="#000000" fill-opacity="1"><g transform="translate(104.233351, 264.206425)"><g><path d="M 21.8125 -58.015625 L 33.265625 -58.015625 L 54.59375 0 L 42.984375 0 L 37.59375 -14.46875 L 17.328125 -14.46875 L 12.015625 0 L 0.40625 0 Z M 35.546875 -22.390625 L 27.546875 -46.328125 L 19.203125 -22.390625 Z M 35.546875 -22.390625 "/></g></g></g><g fill="#000000" fill-opacity="1"><g transform="translate(159.142328, 264.206425)"><g><path d="M 52.796875 -14.953125 C 52.796875 -11.679688 51.945312 -8.941406 50.25 -6.734375 C 48.5625 -4.535156 46.285156 -2.863281 43.421875 -1.71875 C 40.566406 -0.570312 37.453125 0 34.078125 0 L 6.046875 0 L 6.046875 -58.015625 L 37.09375 -58.015625 C 39.820312 -58.015625 42.179688 -57.289062 44.171875 -55.84375 C 46.160156 -54.40625 47.6875 -52.554688 48.75 -50.296875 C 49.8125 -48.035156 50.34375 -45.679688 50.34375 -43.234375 C 50.34375 -40.453125 49.632812 -37.804688 48.21875 -35.296875 C 46.800781 -32.796875 44.726562 -30.945312 42 -29.75 C 45.320312 -28.769531 47.953125 -27 49.890625 -24.4375 C 51.828125 -21.875 52.796875 -18.710938 52.796875 -14.953125 Z M 41.4375 -17.078125 C 41.4375 -18.546875 41.132812 -19.863281 40.53125 -21.03125 C 39.9375 -22.207031 39.132812 -23.132812 38.125 -23.8125 C 37.113281 -24.5 35.957031 -24.84375 34.65625 -24.84375 L 17.328125 -24.84375 L 17.328125 -9.5625 L 34.078125 -9.5625 C 35.441406 -9.5625 36.679688 -9.898438 37.796875 -10.578125 C 38.910156 -11.265625 39.796875 -12.175781 40.453125 -13.3125 C 41.109375 -14.457031 41.4375 -15.710938 41.4375 -17.078125 Z M 17.328125 -48.375 L 17.328125 -33.75 L 32.359375 -33.75 C 33.609375 -33.75 34.75 -34.046875 35.78125 -34.640625 C 36.820312 -35.242188 37.65625 -36.085938 38.28125 -37.171875 C 38.90625 -38.265625 39.21875 -39.578125 39.21875 -41.109375 C 39.21875 -42.578125 38.929688 -43.851562 38.359375 -44.9375 C 37.796875 -46.03125 37.035156 -46.875 36.078125 -47.46875 C 35.128906 -48.070312 34.050781 -48.375 32.84375 -48.375 Z M 17.328125 -48.375 "/></g></g></g><g fill="#000000" fill-opacity="1"><g transform="translate(214.704981, 264.206425)"><g><path d="M 2.53125 -29.421875 C 2.53125 -32.960938 3.171875 -36.429688 4.453125 -39.828125 C 5.734375 -43.234375 7.597656 -46.335938 10.046875 -49.140625 C 12.503906 -51.953125 15.503906 -54.1875 19.046875 -55.84375 C 22.585938 -57.507812 26.617188 -58.34375 31.140625 -58.34375 C 36.472656 -58.34375 41.085938 -57.171875 44.984375 -54.828125 C 48.878906 -52.484375 51.78125 -49.4375 53.6875 -45.6875 L 45.03125 -39.71875 C 44.050781 -41.894531 42.769531 -43.625 41.1875 -44.90625 C 39.601562 -46.1875 37.910156 -47.082031 36.109375 -47.59375 C 34.316406 -48.113281 32.550781 -48.375 30.8125 -48.375 C 27.976562 -48.375 25.507812 -47.800781 23.40625 -46.65625 C 21.3125 -45.507812 19.554688 -44.007812 18.140625 -42.15625 C 16.722656 -40.3125 15.671875 -38.242188 14.984375 -35.953125 C 14.304688 -33.671875 13.96875 -31.382812 13.96875 -29.09375 C 13.96875 -26.53125 14.375 -24.0625 15.1875 -21.6875 C 16.007812 -19.320312 17.171875 -17.226562 18.671875 -15.40625 C 20.171875 -13.582031 21.96875 -12.140625 24.0625 -11.078125 C 26.164062 -10.015625 28.46875 -9.484375 30.96875 -9.484375 C 32.769531 -9.484375 34.59375 -9.78125 36.4375 -10.375 C 38.289062 -10.976562 40.007812 -11.929688 41.59375 -13.234375 C 43.175781 -14.546875 44.398438 -16.238281 45.265625 -18.3125 L 54.5 -13 C 53.363281 -10.101562 51.5 -7.644531 48.90625 -5.625 C 46.320312 -3.613281 43.421875 -2.09375 40.203125 -1.0625 C 36.992188 -0.03125 33.804688 0.484375 30.640625 0.484375 C 26.503906 0.484375 22.71875 -0.367188 19.28125 -2.078125 C 15.851562 -3.796875 12.898438 -6.082031 10.421875 -8.9375 C 7.941406 -11.800781 6.003906 -15.015625 4.609375 -18.578125 C 3.222656 -22.148438 2.53125 -25.765625 2.53125 -29.421875 Z M 2.53125 -29.421875 "/></g></g></g><g fill="#000000" fill-opacity="1"><g transform="translate(54.83283, 316.594902)"><g><path d="M 2.0625 0 L 2.0625 -19.84375 L 10.484375 -19.84375 C 11.398438 -19.84375 12.238281 -19.65625 13 -19.28125 C 13.757812 -18.914062 14.421875 -18.414062 14.984375 -17.78125 C 15.554688 -17.144531 16 -16.4375 16.3125 -15.65625 C 16.632812 -14.875 16.796875 -14.070312 16.796875 -13.25 C 16.796875 -12.132812 16.535156 -11.070312 16.015625 -10.0625 C 15.492188 -9.050781 14.773438 -8.226562 13.859375 -7.59375 C 12.953125 -6.96875 11.875 -6.65625 10.625 -6.65625 L 5.921875 -6.65625 L 5.921875 0 Z M 5.921875 -10.03125 L 10.40625 -10.03125 C 10.863281 -10.03125 11.28125 -10.160156 11.65625 -10.421875 C 12.03125 -10.679688 12.328125 -11.054688 12.546875 -11.546875 C 12.773438 -12.046875 12.890625 -12.613281 12.890625 -13.25 C 12.890625 -13.9375 12.757812 -14.519531 12.5 -15 C 12.25 -15.488281 11.921875 -15.851562 11.515625 -16.09375 C 11.117188 -16.34375 10.691406 -16.46875 10.234375 -16.46875 L 5.921875 -16.46875 Z M 5.921875 -10.03125 "/></g></g></g><g fill="#000000" fill-opacity="1"><g transform="translate(72.242053, 316.594902)"><g><path d="M 10.53125 0.140625 C 9.082031 0.140625 7.765625 -0.132812 6.578125 -0.6875 C 5.398438 -1.25 4.382812 -2.007812 3.53125 -2.96875 C 2.6875 -3.9375 2.03125 -5.019531 1.5625 -6.21875 C 1.09375 -7.414062 0.859375 -8.648438 0.859375 -9.921875 C 0.859375 -11.242188 1.101562 -12.503906 1.59375 -13.703125 C 2.09375 -14.910156 2.773438 -15.984375 3.640625 -16.921875 C 4.515625 -17.867188 5.539062 -18.613281 6.71875 -19.15625 C 7.90625 -19.707031 9.207031 -19.984375 10.625 -19.984375 C 12.0625 -19.984375 13.367188 -19.691406 14.546875 -19.109375 C 15.734375 -18.535156 16.742188 -17.765625 17.578125 -16.796875 C 18.421875 -15.828125 19.070312 -14.742188 19.53125 -13.546875 C 20 -12.359375 20.234375 -11.132812 20.234375 -9.875 C 20.234375 -8.5625 19.988281 -7.304688 19.5 -6.109375 C 19.019531 -4.910156 18.347656 -3.835938 17.484375 -2.890625 C 16.617188 -1.953125 15.59375 -1.210938 14.40625 -0.671875 C 13.226562 -0.128906 11.9375 0.140625 10.53125 0.140625 Z M 4.78125 -9.921875 C 4.78125 -9.066406 4.910156 -8.238281 5.171875 -7.4375 C 5.429688 -6.632812 5.804688 -5.921875 6.296875 -5.296875 C 6.796875 -4.671875 7.40625 -4.175781 8.125 -3.8125 C 8.84375 -3.445312 9.65625 -3.265625 10.5625 -3.265625 C 11.5 -3.265625 12.328125 -3.457031 13.046875 -3.84375 C 13.773438 -4.226562 14.378906 -4.738281 14.859375 -5.375 C 15.347656 -6.019531 15.71875 -6.738281 15.96875 -7.53125 C 16.226562 -8.320312 16.359375 -9.117188 16.359375 -9.921875 C 16.359375 -10.773438 16.222656 -11.597656 15.953125 -12.390625 C 15.679688 -13.179688 15.296875 -13.890625 14.796875 -14.515625 C 14.304688 -15.140625 13.703125 -15.632812 12.984375 -16 C 12.265625 -16.363281 11.457031 -16.546875 10.5625 -16.546875 C 9.613281 -16.546875 8.78125 -16.351562 8.0625 -15.96875 C 7.34375 -15.59375 6.738281 -15.085938 6.25 -14.453125 C 5.769531 -13.816406 5.40625 -13.109375 5.15625 -12.328125 C 4.90625 -11.546875 4.78125 -10.742188 4.78125 -9.921875 Z M 4.78125 -9.921875 "/></g></g></g><g fill="#000000" fill-opacity="1"><g transform="translate(93.367842, 316.594902)"><g><path d="M 2.0625 0 L 2.0625 -19.84375 L 5.921875 -19.84375 L 5.921875 -3.375 L 16.046875 -3.375 L 16.046875 0 Z M 2.0625 0 "/></g></g></g><g fill="#000000" fill-opacity="1"><g transform="translate(109.687243, 316.594902)"><g><path d="M 2.0625 0 L 2.0625 -19.84375 L 5.921875 -19.84375 L 5.921875 0 Z M 2.0625 0 "/></g></g></g><g fill="#000000" fill-opacity="1"><g transform="translate(117.679282, 316.594902)"><g><path d="M 16.90625 -16.46875 L 10.5625 -16.46875 L 10.5625 0 L 6.734375 0 L 6.734375 -16.46875 L 0.390625 -16.46875 L 0.390625 -19.84375 L 16.90625 -19.84375 Z M 16.90625 -16.46875 "/></g></g></g><g fill="#000000" fill-opacity="1"><g transform="translate(134.976727, 316.594902)"><g><path d="M 2.0625 0 L 2.0625 -19.84375 L 5.921875 -19.84375 L 5.921875 0 Z M 2.0625 0 "/></g></g></g><g fill="#000000" fill-opacity="1"><g transform="translate(142.968766, 316.594902)"><g><path d="M 0.859375 -10.0625 C 0.859375 -11.269531 1.078125 -12.457031 1.515625 -13.625 C 1.960938 -14.789062 2.601562 -15.851562 3.4375 -16.8125 C 4.28125 -17.769531 5.304688 -18.53125 6.515625 -19.09375 C 7.722656 -19.664062 9.101562 -19.953125 10.65625 -19.953125 C 12.476562 -19.953125 14.054688 -19.550781 15.390625 -18.75 C 16.722656 -17.945312 17.710938 -16.90625 18.359375 -15.625 L 15.40625 -13.578125 C 15.070312 -14.328125 14.632812 -14.921875 14.09375 -15.359375 C 13.550781 -15.796875 12.972656 -16.101562 12.359375 -16.28125 C 11.742188 -16.457031 11.132812 -16.546875 10.53125 -16.546875 C 9.5625 -16.546875 8.71875 -16.347656 8 -15.953125 C 7.289062 -15.566406 6.691406 -15.054688 6.203125 -14.421875 C 5.722656 -13.785156 5.363281 -13.078125 5.125 -12.296875 C 4.894531 -11.515625 4.78125 -10.734375 4.78125 -9.953125 C 4.78125 -9.078125 4.921875 -8.234375 5.203125 -7.421875 C 5.484375 -6.609375 5.878906 -5.890625 6.390625 -5.265625 C 6.898438 -4.640625 7.515625 -4.144531 8.234375 -3.78125 C 8.953125 -3.425781 9.738281 -3.25 10.59375 -3.25 C 11.207031 -3.25 11.832031 -3.347656 12.46875 -3.546875 C 13.101562 -3.753906 13.6875 -4.082031 14.21875 -4.53125 C 14.757812 -4.976562 15.179688 -5.554688 15.484375 -6.265625 L 18.640625 -4.4375 C 18.253906 -3.457031 17.617188 -2.617188 16.734375 -1.921875 C 15.847656 -1.234375 14.851562 -0.710938 13.75 -0.359375 C 12.65625 -0.00390625 11.566406 0.171875 10.484375 0.171875 C 9.066406 0.171875 7.769531 -0.117188 6.59375 -0.703125 C 5.414062 -1.296875 4.40625 -2.082031 3.5625 -3.0625 C 2.71875 -4.039062 2.054688 -5.140625 1.578125 -6.359375 C 1.097656 -7.578125 0.859375 -8.8125 0.859375 -10.0625 Z M 0.859375 -10.0625 "/></g></g></g><g fill="#000000" fill-opacity="1"><g transform="translate(161.85896, 316.594902)"><g><path d="M 7.46875 -19.84375 L 11.375 -19.84375 L 18.671875 0 L 14.703125 0 L 12.859375 -4.953125 L 5.921875 -4.953125 L 4.109375 0 L 0.140625 0 Z M 12.15625 -7.65625 L 9.421875 -15.84375 L 6.5625 -7.65625 Z M 12.15625 -7.65625 "/></g></g></g><g fill="#000000" fill-opacity="1"><g transform="translate(180.637444, 316.594902)"><g><path d="M 2.0625 0 L 2.0625 -19.84375 L 5.921875 -19.84375 L 5.921875 -3.375 L 16.046875 -3.375 L 16.046875 0 Z M 2.0625 0 "/></g></g></g><g fill="#000000" fill-opacity="1"><g transform="translate(196.118321, 316.594902)"><g/></g></g><g fill="#000000" fill-opacity="1"><g transform="translate(202.824929, 316.594902)"><g><path d="M 13.890625 -14.640625 C 13.765625 -14.773438 13.523438 -14.953125 13.171875 -15.171875 C 12.828125 -15.398438 12.410156 -15.613281 11.921875 -15.8125 C 11.429688 -16.019531 10.894531 -16.203125 10.3125 -16.359375 C 9.738281 -16.523438 9.148438 -16.609375 8.546875 -16.609375 C 7.503906 -16.609375 6.71875 -16.410156 6.1875 -16.015625 C 5.65625 -15.628906 5.390625 -15.082031 5.390625 -14.375 C 5.390625 -13.832031 5.554688 -13.398438 5.890625 -13.078125 C 6.234375 -12.765625 6.738281 -12.492188 7.40625 -12.265625 C 8.070312 -12.046875 8.910156 -11.804688 9.921875 -11.546875 C 11.222656 -11.222656 12.351562 -10.832031 13.3125 -10.375 C 14.28125 -9.925781 15.019531 -9.332031 15.53125 -8.59375 C 16.039062 -7.851562 16.296875 -6.878906 16.296875 -5.671875 C 16.296875 -4.609375 16.097656 -3.695312 15.703125 -2.9375 C 15.316406 -2.1875 14.773438 -1.578125 14.078125 -1.109375 C 13.390625 -0.648438 12.609375 -0.3125 11.734375 -0.09375 C 10.859375 0.113281 9.925781 0.21875 8.9375 0.21875 C 7.957031 0.21875 6.972656 0.117188 5.984375 -0.078125 C 4.992188 -0.285156 4.039062 -0.578125 3.125 -0.953125 C 2.21875 -1.335938 1.378906 -1.800781 0.609375 -2.34375 L 2.3125 -5.671875 C 2.488281 -5.503906 2.789062 -5.285156 3.21875 -5.015625 C 3.644531 -4.742188 4.164062 -4.472656 4.78125 -4.203125 C 5.394531 -3.929688 6.0625 -3.703125 6.78125 -3.515625 C 7.507812 -3.335938 8.25 -3.25 9 -3.25 C 10.039062 -3.25 10.832031 -3.425781 11.375 -3.78125 C 11.914062 -4.132812 12.1875 -4.632812 12.1875 -5.28125 C 12.1875 -5.875 11.972656 -6.335938 11.546875 -6.671875 C 11.117188 -7.015625 10.519531 -7.3125 9.75 -7.5625 C 8.988281 -7.8125 8.085938 -8.085938 7.046875 -8.390625 C 5.796875 -8.742188 4.75 -9.140625 3.90625 -9.578125 C 3.070312 -10.015625 2.445312 -10.566406 2.03125 -11.234375 C 1.625 -11.910156 1.421875 -12.75 1.421875 -13.75 C 1.421875 -15.113281 1.742188 -16.253906 2.390625 -17.171875 C 3.035156 -18.097656 3.90625 -18.796875 5 -19.265625 C 6.101562 -19.742188 7.328125 -19.984375 8.671875 -19.984375 C 9.597656 -19.984375 10.472656 -19.878906 11.296875 -19.671875 C 12.128906 -19.472656 12.910156 -19.203125 13.640625 -18.859375 C 14.367188 -18.523438 15.019531 -18.164062 15.59375 -17.78125 Z M 13.890625 -14.640625 "/></g></g></g><g fill="#000000" fill-opacity="1"><g transform="translate(219.954713, 316.594902)"><g><path d="M 16.90625 -16.46875 L 10.5625 -16.46875 L 10.5625 0 L 6.734375 0 L 6.734375 -16.46875 L 0.390625 -16.46875 L 0.390625 -19.84375 L 16.90625 -19.84375 Z M 16.90625 -16.46875 "/></g></g></g><g fill="#000000" fill-opacity="1"><g transform="translate(237.252157, 316.594902)"><g><path d="M 10.484375 0.140625 C 8.898438 0.140625 7.550781 -0.125 6.4375 -0.65625 C 5.332031 -1.1875 4.4375 -1.914062 3.75 -2.84375 C 3.070312 -3.78125 2.570312 -4.835938 2.25 -6.015625 C 1.9375 -7.203125 1.78125 -8.441406 1.78125 -9.734375 L 1.78125 -19.84375 L 5.640625 -19.84375 L 5.640625 -9.734375 C 5.640625 -8.910156 5.71875 -8.109375 5.875 -7.328125 C 6.039062 -6.554688 6.304688 -5.863281 6.671875 -5.25 C 7.046875 -4.632812 7.539062 -4.148438 8.15625 -3.796875 C 8.769531 -3.441406 9.535156 -3.265625 10.453125 -3.265625 C 11.390625 -3.265625 12.164062 -3.445312 12.78125 -3.8125 C 13.40625 -4.175781 13.898438 -4.664062 14.265625 -5.28125 C 14.628906 -5.894531 14.894531 -6.585938 15.0625 -7.359375 C 15.226562 -8.140625 15.3125 -8.929688 15.3125 -9.734375 L 15.3125 -19.84375 L 19.140625 -19.84375 L 19.140625 -9.734375 C 19.140625 -8.367188 18.976562 -7.085938 18.65625 -5.890625 C 18.332031 -4.703125 17.820312 -3.65625 17.125 -2.75 C 16.425781 -1.84375 15.523438 -1.132812 14.421875 -0.625 C 13.328125 -0.113281 12.015625 0.140625 10.484375 0.140625 Z M 10.484375 0.140625 "/></g></g></g><g fill="#000000" fill-opacity="1"><g transform="translate(258.210286, 316.594902)"><g><path d="M 2.0625 0 L 2.0625 -19.84375 L 9.28125 -19.84375 C 11.4375 -19.84375 13.242188 -19.398438 14.703125 -18.515625 C 16.160156 -17.628906 17.25 -16.4375 17.96875 -14.9375 C 18.695312 -13.4375 19.0625 -11.773438 19.0625 -9.953125 C 19.0625 -7.941406 18.660156 -6.1875 17.859375 -4.6875 C 17.054688 -3.195312 15.921875 -2.039062 14.453125 -1.21875 C 12.992188 -0.40625 11.269531 0 9.28125 0 Z M 15.171875 -9.953125 C 15.171875 -11.234375 14.9375 -12.363281 14.46875 -13.34375 C 14.007812 -14.320312 13.34375 -15.085938 12.46875 -15.640625 C 11.59375 -16.191406 10.53125 -16.46875 9.28125 -16.46875 L 5.921875 -16.46875 L 5.921875 -3.375 L 9.28125 -3.375 C 10.550781 -3.375 11.625 -3.660156 12.5 -4.234375 C 13.375 -4.804688 14.035156 -5.585938 14.484375 -6.578125 C 14.941406 -7.578125 15.171875 -8.703125 15.171875 -9.953125 Z M 15.171875 -9.953125 "/></g></g></g><g fill="#000000" fill-opacity="1"><g transform="translate(278.218318, 316.594902)"><g><path d="M 2.0625 0 L 2.0625 -19.84375 L 5.921875 -19.84375 L 5.921875 0 Z M 2.0625 0 "/></g></g></g><g fill="#000000" fill-opacity="1"><g transform="translate(286.210371, 316.594902)"><g><path d="M 15.84375 -3.375 L 15.84375 0 L 2.0625 0 L 2.0625 -19.84375 L 15.59375 -19.84375 L 15.59375 -16.46875 L 5.921875 -16.46875 L 5.921875 -11.6875 L 14.28125 -11.6875 L 14.28125 -8.546875 L 5.921875 -8.546875 L 5.921875 -3.375 Z M 15.84375 -3.375 "/></g></g></g><g fill="#000000" fill-opacity="1"><g transform="translate(303.004833, 316.594902)"><g><path d="M 13.890625 -14.640625 C 13.765625 -14.773438 13.523438 -14.953125 13.171875 -15.171875 C 12.828125 -15.398438 12.410156 -15.613281 11.921875 -15.8125 C 11.429688 -16.019531 10.894531 -16.203125 10.3125 -16.359375 C 9.738281 -16.523438 9.148438 -16.609375 8.546875 -16.609375 C 7.503906 -16.609375 6.71875 -16.410156 6.1875 -16.015625 C 5.65625 -15.628906 5.390625 -15.082031 5.390625 -14.375 C 5.390625 -13.832031 5.554688 -13.398438 5.890625 -13.078125 C 6.234375 -12.765625 6.738281 -12.492188 7.40625 -12.265625 C 8.070312 -12.046875 8.910156 -11.804688 9.921875 -11.546875 C 11.222656 -11.222656 12.351562 -10.832031 13.3125 -10.375 C 14.28125 -9.925781 15.019531 -9.332031 15.53125 -8.59375 C 16.039062 -7.851562 16.296875 -6.878906 16.296875 -5.671875 C 16.296875 -4.609375 16.097656 -3.695312 15.703125 -2.9375 C 15.316406 -2.1875 14.773438 -1.578125 14.078125 -1.109375 C 13.390625 -0.648438 12.609375 -0.3125 11.734375 -0.09375 C 10.859375 0.113281 9.925781 0.21875 8.9375 0.21875 C 7.957031 0.21875 6.972656 0.117188 5.984375 -0.078125 C 4.992188 -0.285156 4.039062 -0.578125 3.125 -0.953125 C 2.21875 -1.335938 1.378906 -1.800781 0.609375 -2.34375 L 2.3125 -5.671875 C 2.488281 -5.503906 2.789062 -5.285156 3.21875 -5.015625 C 3.644531 -4.742188 4.164062 -4.472656 4.78125 -4.203125 C 5.394531 -3.929688 6.0625 -3.703125 6.78125 -3.515625 C 7.507812 -3.335938 8.25 -3.25 9 -3.25 C 10.039062 -3.25 10.832031 -3.425781 11.375 -3.78125 C 11.914062 -4.132812 12.1875 -4.632812 12.1875 -5.28125 C 12.1875 -5.875 11.972656 -6.335938 11.546875 -6.671875 C 11.117188 -7.015625 10.519531 -7.3125 9.75 -7.5625 C 8.988281 -7.8125 8.085938 -8.085938 7.046875 -8.390625 C 5.796875 -8.742188 4.75 -9.140625 3.90625 -9.578125 C 3.070312 -10.015625 2.445312 -10.566406 2.03125 -11.234375 C 1.625 -11.910156 1.421875 -12.75 1.421875 -13.75 C 1.421875 -15.113281 1.742188 -16.253906 2.390625 -17.171875 C 3.035156 -18.097656 3.90625 -18.796875 5 -19.265625 C 6.101562 -19.742188 7.328125 -19.984375 8.671875 -19.984375 C 9.597656 -19.984375 10.472656 -19.878906 11.296875 -19.671875 C 12.128906 -19.472656 12.910156 -19.203125 13.640625 -18.859375 C 14.367188 -18.523438 15.019531 -18.164062 15.59375 -17.78125 Z M 13.890625 -14.640625 "/></g></g></g></svg>