<svg xmlns="http://www.w3.org/2000/svg" xmlns:xlink="http://www.w3.org/1999/xlink" width="500" zoomAndPan="magnify" viewBox="0 0 375 68.999997" height="92" preserveAspectRatio="xMidYMid meet" version="1.0"><defs><g/></defs><g fill="#000000" fill-opacity="1"><g transform="translate(0.00000815217, 67.254728)"><g><path d="M 25.59375 -68.046875 L 39.015625 -68.046875 L 64.03125 0 L 50.40625 0 L 44.09375 -16.96875 L 20.3125 -16.96875 L 14.09375 0 L 0.484375 0 Z M 41.6875 -26.265625 L 32.296875 -54.34375 L 22.515625 -26.265625 Z M 41.6875 -26.265625 "/></g></g></g><g fill="#000000" fill-opacity="1"><g transform="translate(64.391077, 67.254728)"><g><path d="M 61.921875 -17.546875 C 61.921875 -13.703125 60.925781 -10.488281 58.9375 -7.90625 C 56.957031 -5.320312 54.289062 -3.359375 50.9375 -2.015625 C 47.582031 -0.671875 43.925781 0 39.96875 0 L 7.09375 0 L 7.09375 -68.046875 L 43.515625 -68.046875 C 46.710938 -68.046875 49.472656 -67.195312 51.796875 -65.5 C 54.128906 -63.8125 55.921875 -61.640625 57.171875 -58.984375 C 58.421875 -56.335938 59.046875 -53.578125 59.046875 -50.703125 C 59.046875 -47.441406 58.210938 -44.34375 56.546875 -41.40625 C 54.890625 -38.46875 52.460938 -36.296875 49.265625 -34.890625 C 53.160156 -33.734375 56.242188 -31.65625 58.515625 -28.65625 C 60.785156 -25.65625 61.921875 -21.953125 61.921875 -17.546875 Z M 48.59375 -20.03125 C 48.59375 -21.757812 48.238281 -23.304688 47.53125 -24.671875 C 46.832031 -26.046875 45.890625 -27.132812 44.703125 -27.9375 C 43.523438 -28.738281 42.171875 -29.140625 40.640625 -29.140625 L 20.3125 -29.140625 L 20.3125 -11.21875 L 39.96875 -11.21875 C 41.5625 -11.21875 43.015625 -11.613281 44.328125 -12.40625 C 45.640625 -13.207031 46.675781 -14.28125 47.4375 -15.625 C 48.207031 -16.96875 48.59375 -18.4375 48.59375 -20.03125 Z M 20.3125 -56.734375 L 20.3125 -39.578125 L 37.953125 -39.578125 C 39.421875 -39.578125 40.757812 -39.925781 41.96875 -40.625 C 43.1875 -41.332031 44.160156 -42.328125 44.890625 -43.609375 C 45.628906 -44.890625 46 -46.421875 46 -48.203125 C 46 -49.929688 45.664062 -51.429688 45 -52.703125 C 44.332031 -53.984375 43.4375 -54.972656 42.3125 -55.671875 C 41.195312 -56.378906 39.9375 -56.734375 38.53125 -56.734375 Z M 20.3125 -56.734375 "/></g></g></g><g fill="#000000" fill-opacity="1"><g transform="translate(129.548704, 67.254728)"><g><path d="M 2.96875 -34.5 C 2.96875 -38.65625 3.71875 -42.726562 5.21875 -46.71875 C 6.71875 -50.71875 8.90625 -54.363281 11.78125 -57.65625 C 14.664062 -60.945312 18.179688 -63.566406 22.328125 -65.515625 C 26.484375 -67.460938 31.210938 -68.4375 36.515625 -68.4375 C 42.773438 -68.4375 48.1875 -67.0625 52.75 -64.3125 C 57.320312 -61.5625 60.726562 -57.984375 62.96875 -53.578125 L 52.8125 -46.578125 C 51.65625 -49.128906 50.148438 -51.15625 48.296875 -52.65625 C 46.453125 -54.164062 44.472656 -55.222656 42.359375 -55.828125 C 40.253906 -56.429688 38.179688 -56.734375 36.140625 -56.734375 C 32.816406 -56.734375 29.921875 -56.0625 27.453125 -54.71875 C 24.992188 -53.382812 22.929688 -51.628906 21.265625 -49.453125 C 19.609375 -47.285156 18.378906 -44.859375 17.578125 -42.171875 C 16.785156 -39.484375 16.390625 -36.800781 16.390625 -34.125 C 16.390625 -31.113281 16.867188 -28.21875 17.828125 -25.4375 C 18.785156 -22.664062 20.140625 -20.207031 21.890625 -18.0625 C 23.648438 -15.925781 25.757812 -14.234375 28.21875 -12.984375 C 30.6875 -11.742188 33.390625 -11.125 36.328125 -11.125 C 38.429688 -11.125 40.566406 -11.472656 42.734375 -12.171875 C 44.910156 -12.867188 46.925781 -13.984375 48.78125 -15.515625 C 50.632812 -17.054688 52.070312 -19.039062 53.09375 -21.46875 L 63.921875 -15.234375 C 62.585938 -11.847656 60.398438 -8.972656 57.359375 -6.609375 C 54.328125 -4.242188 50.925781 -2.453125 47.15625 -1.234375 C 43.382812 -0.0234375 39.644531 0.578125 35.9375 0.578125 C 31.082031 0.578125 26.640625 -0.425781 22.609375 -2.4375 C 18.585938 -4.457031 15.125 -7.144531 12.21875 -10.5 C 9.3125 -13.851562 7.039062 -17.617188 5.40625 -21.796875 C 3.78125 -25.984375 2.96875 -30.21875 2.96875 -34.5 Z M 2.96875 -34.5 "/></g></g></g><g fill="#000000" fill-opacity="1"><g transform="translate(198.99087, 27.749997)"><g><path d="M 3.140625 0 L 3.140625 -25 L 13.484375 -25 C 14.566406 -25 15.554688 -24.773438 16.453125 -24.328125 C 17.359375 -23.878906 18.140625 -23.273438 18.796875 -22.515625 C 19.453125 -21.753906 19.96875 -20.910156 20.34375 -19.984375 C 20.71875 -19.054688 20.90625 -18.109375 20.90625 -17.140625 C 20.90625 -15.785156 20.601562 -14.5 20 -13.28125 C 19.40625 -12.070312 18.566406 -11.09375 17.484375 -10.34375 C 16.410156 -9.59375 15.144531 -9.21875 13.6875 -9.21875 L 5.59375 -9.21875 L 5.59375 0 Z M 5.59375 -11.40625 L 13.59375 -11.40625 C 14.570312 -11.40625 15.425781 -11.675781 16.15625 -12.21875 C 16.882812 -12.757812 17.445312 -13.460938 17.84375 -14.328125 C 18.25 -15.191406 18.453125 -16.128906 18.453125 -17.140625 C 18.453125 -18.171875 18.210938 -19.117188 17.734375 -19.984375 C 17.265625 -20.859375 16.648438 -21.546875 15.890625 -22.046875 C 15.128906 -22.554688 14.289062 -22.8125 13.375 -22.8125 L 5.59375 -22.8125 Z M 5.59375 -11.40625 "/></g></g></g><g fill="#000000" fill-opacity="1"><g transform="translate(220.887192, 27.749997)"><g><path d="M 13.203125 0.171875 C 11.441406 0.171875 9.84375 -0.175781 8.40625 -0.875 C 6.976562 -1.582031 5.75 -2.539062 4.71875 -3.75 C 3.6875 -4.957031 2.890625 -6.316406 2.328125 -7.828125 C 1.765625 -9.347656 1.484375 -10.90625 1.484375 -12.5 C 1.484375 -14.164062 1.773438 -15.753906 2.359375 -17.265625 C 2.941406 -18.773438 3.765625 -20.125 4.828125 -21.3125 C 5.898438 -22.5 7.148438 -23.4375 8.578125 -24.125 C 10.015625 -24.820312 11.566406 -25.171875 13.234375 -25.171875 C 14.992188 -25.171875 16.585938 -24.804688 18.015625 -24.078125 C 19.453125 -23.347656 20.679688 -22.375 21.703125 -21.15625 C 22.722656 -19.9375 23.515625 -18.578125 24.078125 -17.078125 C 24.640625 -15.578125 24.921875 -14.039062 24.921875 -12.46875 C 24.921875 -10.800781 24.625 -9.207031 24.03125 -7.6875 C 23.445312 -6.175781 22.628906 -4.828125 21.578125 -3.640625 C 20.523438 -2.453125 19.28125 -1.519531 17.84375 -0.84375 C 16.414062 -0.164062 14.867188 0.171875 13.203125 0.171875 Z M 3.9375 -12.5 C 3.9375 -11.132812 4.160156 -9.820312 4.609375 -8.5625 C 5.054688 -7.3125 5.691406 -6.195312 6.515625 -5.21875 C 7.335938 -4.25 8.316406 -3.476562 9.453125 -2.90625 C 10.585938 -2.332031 11.835938 -2.046875 13.203125 -2.046875 C 14.628906 -2.046875 15.910156 -2.34375 17.046875 -2.9375 C 18.191406 -3.539062 19.164062 -4.335938 19.96875 -5.328125 C 20.78125 -6.328125 21.394531 -7.445312 21.8125 -8.6875 C 22.238281 -9.9375 22.453125 -11.207031 22.453125 -12.5 C 22.453125 -13.851562 22.226562 -15.148438 21.78125 -16.390625 C 21.34375 -17.640625 20.707031 -18.757812 19.875 -19.75 C 19.039062 -20.738281 18.0625 -21.515625 16.9375 -22.078125 C 15.8125 -22.640625 14.566406 -22.921875 13.203125 -22.921875 C 11.796875 -22.921875 10.519531 -22.625 9.375 -22.03125 C 8.238281 -21.445312 7.265625 -20.65625 6.453125 -19.65625 C 5.648438 -18.664062 5.03125 -17.546875 4.59375 -16.296875 C 4.15625 -15.054688 3.9375 -13.789062 3.9375 -12.5 Z M 3.9375 -12.5 "/></g></g></g><g fill="#000000" fill-opacity="1"><g transform="translate(247.324713, 27.749997)"><g><path d="M 3.140625 0 L 3.140625 -25 L 5.59375 -25 L 5.59375 -2.1875 L 20.03125 -2.1875 L 20.03125 0 Z M 3.140625 0 "/></g></g></g><g fill="#000000" fill-opacity="1"><g transform="translate(267.848122, 27.749997)"><g><path d="M 3.140625 0 L 3.140625 -25 L 5.59375 -25 L 5.59375 0 Z M 3.140625 0 "/></g></g></g><g fill="#000000" fill-opacity="1"><g transform="translate(276.578487, 27.749997)"><g><path d="M 20.875 -22.8125 L 11.96875 -22.8125 L 11.96875 0 L 9.5 0 L 9.5 -22.8125 L 0.59375 -22.8125 L 0.59375 -25 L 20.875 -25 Z M 20.875 -22.8125 "/></g></g></g><g fill="#000000" fill-opacity="1"><g transform="translate(298.052374, 27.749997)"><g><path d="M 3.140625 0 L 3.140625 -25 L 5.59375 -25 L 5.59375 0 Z M 3.140625 0 "/></g></g></g><g fill="#000000" fill-opacity="1"><g transform="translate(306.782739, 27.749997)"><g><path d="M 1.484375 -12.671875 C 1.484375 -14.203125 1.742188 -15.695312 2.265625 -17.15625 C 2.796875 -18.625 3.566406 -19.960938 4.578125 -21.171875 C 5.585938 -22.378906 6.832031 -23.34375 8.3125 -24.0625 C 9.789062 -24.78125 11.46875 -25.140625 13.34375 -25.140625 C 15.570312 -25.140625 17.476562 -24.628906 19.0625 -23.609375 C 20.644531 -22.585938 21.8125 -21.273438 22.5625 -19.671875 L 20.625 -18.484375 C 20.082031 -19.585938 19.398438 -20.460938 18.578125 -21.109375 C 17.765625 -21.753906 16.894531 -22.21875 15.96875 -22.5 C 15.039062 -22.78125 14.117188 -22.921875 13.203125 -22.921875 C 11.703125 -22.921875 10.375 -22.617188 9.21875 -22.015625 C 8.070312 -21.421875 7.101562 -20.625 6.3125 -19.625 C 5.53125 -18.625 4.9375 -17.507812 4.53125 -16.28125 C 4.132812 -15.050781 3.9375 -13.800781 3.9375 -12.53125 C 3.9375 -11.144531 4.171875 -9.816406 4.640625 -8.546875 C 5.109375 -7.285156 5.765625 -6.164062 6.609375 -5.1875 C 7.460938 -4.21875 8.457031 -3.441406 9.59375 -2.859375 C 10.726562 -2.285156 11.96875 -2 13.3125 -2 C 14.25 -2 15.207031 -2.164062 16.1875 -2.5 C 17.175781 -2.832031 18.097656 -3.335938 18.953125 -4.015625 C 19.804688 -4.691406 20.492188 -5.570312 21.015625 -6.65625 L 23.0625 -5.59375 C 22.539062 -4.351562 21.738281 -3.296875 20.65625 -2.421875 C 19.582031 -1.554688 18.378906 -0.898438 17.046875 -0.453125 C 15.722656 -0.00390625 14.429688 0.21875 13.171875 0.21875 C 11.453125 0.21875 9.875 -0.148438 8.4375 -0.890625 C 7.007812 -1.628906 5.773438 -2.613281 4.734375 -3.84375 C 3.691406 -5.082031 2.890625 -6.46875 2.328125 -8 C 1.765625 -9.539062 1.484375 -11.097656 1.484375 -12.671875 Z M 1.484375 -12.671875 "/></g></g></g><g fill="#000000" fill-opacity="1"><g transform="translate(330.580005, 27.749997)"><g><path d="M 10.875 -25 L 12.953125 -25 L 23.34375 0 L 20.734375 0 L 17.5 -7.8125 L 6.265625 -7.8125 L 3.0625 0 L 0.421875 0 Z M 16.9375 -9.75 L 11.90625 -22.109375 L 6.796875 -9.75 Z M 16.9375 -9.75 "/></g></g></g><g fill="#000000" fill-opacity="1"><g transform="translate(354.377294, 27.749997)"><g><path d="M 3.140625 0 L 3.140625 -25 L 5.59375 -25 L 5.59375 -2.1875 L 20.03125 -2.1875 L 20.03125 0 Z M 3.140625 0 "/></g></g></g><g fill="#000000" fill-opacity="1"><g transform="translate(373.88148, 27.749997)"><g/></g></g><g fill="#000000" fill-opacity="1"><g transform="translate(198.99087, 65.999993)"><g><path d="M 17.75 -20.3125 C 17.394531 -20.707031 16.984375 -21.0625 16.515625 -21.375 C 16.046875 -21.695312 15.515625 -21.972656 14.921875 -22.203125 C 14.335938 -22.441406 13.710938 -22.628906 13.046875 -22.765625 C 12.378906 -22.910156 11.664062 -22.984375 10.90625 -22.984375 C 8.726562 -22.984375 7.128906 -22.566406 6.109375 -21.734375 C 5.085938 -20.898438 4.578125 -19.769531 4.578125 -18.34375 C 4.578125 -17.351562 4.816406 -16.578125 5.296875 -16.015625 C 5.773438 -15.453125 6.53125 -14.992188 7.5625 -14.640625 C 8.601562 -14.285156 9.921875 -13.921875 11.515625 -13.546875 C 13.296875 -13.171875 14.832031 -12.722656 16.125 -12.203125 C 17.414062 -11.691406 18.410156 -10.992188 19.109375 -10.109375 C 19.816406 -9.234375 20.171875 -8.046875 20.171875 -6.546875 C 20.171875 -5.398438 19.945312 -4.398438 19.5 -3.546875 C 19.050781 -2.703125 18.425781 -2 17.625 -1.4375 C 16.832031 -0.875 15.882812 -0.457031 14.78125 -0.1875 C 13.675781 0.0820312 12.46875 0.21875 11.15625 0.21875 C 9.863281 0.21875 8.625 0.0820312 7.4375 -0.1875 C 6.257812 -0.457031 5.140625 -0.859375 4.078125 -1.390625 C 3.023438 -1.921875 2.039062 -2.597656 1.125 -3.421875 L 2.359375 -5.421875 C 2.804688 -4.953125 3.335938 -4.507812 3.953125 -4.09375 C 4.578125 -3.6875 5.269531 -3.316406 6.03125 -2.984375 C 6.800781 -2.660156 7.625 -2.410156 8.5 -2.234375 C 9.382812 -2.054688 10.296875 -1.96875 11.234375 -1.96875 C 13.222656 -1.96875 14.773438 -2.332031 15.890625 -3.0625 C 17.003906 -3.789062 17.5625 -4.867188 17.5625 -6.296875 C 17.5625 -7.328125 17.28125 -8.15625 16.71875 -8.78125 C 16.15625 -9.40625 15.3125 -9.914062 14.1875 -10.3125 C 13.0625 -10.707031 11.675781 -11.09375 10.03125 -11.46875 C 8.289062 -11.875 6.820312 -12.320312 5.625 -12.8125 C 4.4375 -13.300781 3.539062 -13.953125 2.9375 -14.765625 C 2.34375 -15.578125 2.046875 -16.648438 2.046875 -17.984375 C 2.046875 -19.535156 2.425781 -20.84375 3.1875 -21.90625 C 3.945312 -22.976562 4.992188 -23.789062 6.328125 -24.34375 C 7.671875 -24.894531 9.210938 -25.171875 10.953125 -25.171875 C 12.054688 -25.171875 13.082031 -25.054688 14.03125 -24.828125 C 14.976562 -24.609375 15.859375 -24.285156 16.671875 -23.859375 C 17.484375 -23.441406 18.238281 -22.914062 18.9375 -22.28125 Z M 17.75 -20.3125 "/></g></g></g><g fill="#000000" fill-opacity="1"><g transform="translate(220.323948, 65.999993)"><g><path d="M 20.875 -22.8125 L 11.96875 -22.8125 L 11.96875 0 L 9.5 0 L 9.5 -22.8125 L 0.59375 -22.8125 L 0.59375 -25 L 20.875 -25 Z M 20.875 -22.8125 "/></g></g></g><g fill="#000000" fill-opacity="1"><g transform="translate(241.797834, 65.999993)"><g><path d="M 13.3125 0.171875 C 11.332031 0.171875 9.660156 -0.175781 8.296875 -0.875 C 6.941406 -1.582031 5.863281 -2.523438 5.0625 -3.703125 C 4.269531 -4.890625 3.691406 -6.234375 3.328125 -7.734375 C 2.960938 -9.242188 2.78125 -10.796875 2.78125 -12.390625 L 2.78125 -25 L 5.203125 -25 L 5.203125 -12.390625 C 5.203125 -11.097656 5.335938 -9.828125 5.609375 -8.578125 C 5.878906 -7.335938 6.316406 -6.222656 6.921875 -5.234375 C 7.535156 -4.253906 8.359375 -3.476562 9.390625 -2.90625 C 10.429688 -2.332031 11.722656 -2.046875 13.265625 -2.046875 C 14.867188 -2.046875 16.191406 -2.34375 17.234375 -2.9375 C 18.273438 -3.539062 19.09375 -4.332031 19.6875 -5.3125 C 20.289062 -6.300781 20.722656 -7.410156 20.984375 -8.640625 C 21.242188 -9.867188 21.375 -11.117188 21.375 -12.390625 L 21.375 -25 L 23.828125 -25 L 23.828125 -12.390625 C 23.828125 -10.722656 23.640625 -9.125 23.265625 -7.59375 C 22.890625 -6.070312 22.285156 -4.734375 21.453125 -3.578125 C 20.617188 -2.429688 19.53125 -1.519531 18.1875 -0.84375 C 16.851562 -0.164062 15.226562 0.171875 13.3125 0.171875 Z M 13.3125 0.171875 "/></g></g></g><g fill="#000000" fill-opacity="1"><g transform="translate(268.376175, 65.999993)"><g><path d="M 3.140625 0 L 3.140625 -25 L 11.609375 -25 C 14.265625 -25 16.476562 -24.441406 18.25 -23.328125 C 20.019531 -22.210938 21.351562 -20.707031 22.25 -18.8125 C 23.144531 -16.925781 23.59375 -14.832031 23.59375 -12.53125 C 23.59375 -10 23.101562 -7.789062 22.125 -5.90625 C 21.15625 -4.03125 19.769531 -2.578125 17.96875 -1.546875 C 16.175781 -0.515625 14.054688 0 11.609375 0 Z M 21.125 -12.53125 C 21.125 -14.53125 20.753906 -16.300781 20.015625 -17.84375 C 19.273438 -19.394531 18.203125 -20.609375 16.796875 -21.484375 C 15.390625 -22.367188 13.660156 -22.8125 11.609375 -22.8125 L 5.59375 -22.8125 L 5.59375 -2.1875 L 11.609375 -2.1875 C 13.679688 -2.1875 15.421875 -2.640625 16.828125 -3.546875 C 18.234375 -4.460938 19.300781 -5.703125 20.03125 -7.265625 C 20.757812 -8.828125 21.125 -10.582031 21.125 -12.53125 Z M 21.125 -12.53125 "/></g></g></g><g fill="#000000" fill-opacity="1"><g transform="translate(293.546388, 65.999993)"><g><path d="M 3.140625 0 L 3.140625 -25 L 5.59375 -25 L 5.59375 0 Z M 3.140625 0 "/></g></g></g><g fill="#000000" fill-opacity="1"><g transform="translate(302.276753, 65.999993)"><g><path d="M 19.921875 -2.1875 L 19.921875 0 L 3.140625 0 L 3.140625 -25 L 19.609375 -25 L 19.609375 -22.8125 L 5.59375 -22.8125 L 5.59375 -13.796875 L 17.8125 -13.796875 L 17.8125 -11.71875 L 5.59375 -11.71875 L 5.59375 -2.1875 Z M 19.921875 -2.1875 "/></g></g></g><g fill="#000000" fill-opacity="1"><g transform="translate(323.574618, 65.999993)"><g><path d="M 17.75 -20.3125 C 17.394531 -20.707031 16.984375 -21.0625 16.515625 -21.375 C 16.046875 -21.695312 15.515625 -21.972656 14.921875 -22.203125 C 14.335938 -22.441406 13.710938 -22.628906 13.046875 -22.765625 C 12.378906 -22.910156 11.664062 -22.984375 10.90625 -22.984375 C 8.726562 -22.984375 7.128906 -22.566406 6.109375 -21.734375 C 5.085938 -20.898438 4.578125 -19.769531 4.578125 -18.34375 C 4.578125 -17.351562 4.816406 -16.578125 5.296875 -16.015625 C 5.773438 -15.453125 6.53125 -14.992188 7.5625 -14.640625 C 8.601562 -14.285156 9.921875 -13.921875 11.515625 -13.546875 C 13.296875 -13.171875 14.832031 -12.722656 16.125 -12.203125 C 17.414062 -11.691406 18.410156 -10.992188 19.109375 -10.109375 C 19.816406 -9.234375 20.171875 -8.046875 20.171875 -6.546875 C 20.171875 -5.398438 19.945312 -4.398438 19.5 -3.546875 C 19.050781 -2.703125 18.425781 -2 17.625 -1.4375 C 16.832031 -0.875 15.882812 -0.457031 14.78125 -0.1875 C 13.675781 0.0820312 12.46875 0.21875 11.15625 0.21875 C 9.863281 0.21875 8.625 0.0820312 7.4375 -0.1875 C 6.257812 -0.457031 5.140625 -0.859375 4.078125 -1.390625 C 3.023438 -1.921875 2.039062 -2.597656 1.125 -3.421875 L 2.359375 -5.421875 C 2.804688 -4.953125 3.335938 -4.507812 3.953125 -4.09375 C 4.578125 -3.6875 5.269531 -3.316406 6.03125 -2.984375 C 6.800781 -2.660156 7.625 -2.410156 8.5 -2.234375 C 9.382812 -2.054688 10.296875 -1.96875 11.234375 -1.96875 C 13.222656 -1.96875 14.773438 -2.332031 15.890625 -3.0625 C 17.003906 -3.789062 17.5625 -4.867188 17.5625 -6.296875 C 17.5625 -7.328125 17.28125 -8.15625 16.71875 -8.78125 C 16.15625 -9.40625 15.3125 -9.914062 14.1875 -10.3125 C 13.0625 -10.707031 11.675781 -11.09375 10.03125 -11.46875 C 8.289062 -11.875 6.820312 -12.320312 5.625 -12.8125 C 4.4375 -13.300781 3.539062 -13.953125 2.9375 -14.765625 C 2.34375 -15.578125 2.046875 -16.648438 2.046875 -17.984375 C 2.046875 -19.535156 2.425781 -20.84375 3.1875 -21.90625 C 3.945312 -22.976562 4.992188 -23.789062 6.328125 -24.34375 C 7.671875 -24.894531 9.210938 -25.171875 10.953125 -25.171875 C 12.054688 -25.171875 13.082031 -25.054688 14.03125 -24.828125 C 14.976562 -24.609375 15.859375 -24.285156 16.671875 -23.859375 C 17.484375 -23.441406 18.238281 -22.914062 18.9375 -22.28125 Z M 17.75 -20.3125 "/></g></g></g></svg>