<svg width="27" height="26" viewBox="0 0 27 26" fill="none" xmlns="http://www.w3.org/2000/svg">
<mask id="mask0_780_52445" style="mask-type:luminance" maskUnits="userSpaceOnUse" x="0" y="10" width="27" height="16">
<path d="M0 10.332H26.5938V25.9987H0V10.332Z" fill="white"/>
</mask>
<g mask="url(#mask0_780_52445)">
<path d="M12.9792 10.9883H14.0365C14.849 10.9883 15.6563 11.0664 16.4531 11.2227C17.2552 11.3841 18.026 11.6185 18.7812 11.9258C19.5312 12.2383 20.2448 12.6185 20.9219 13.0716C21.599 13.5195 22.2292 14.0299 22.8021 14.6081C23.3802 15.181 23.8906 15.806 24.3438 16.4779C24.7969 17.1549 25.1771 17.8633 25.4896 18.6133C25.8021 19.3633 26.0365 20.1341 26.1927 20.931C26.3542 21.7279 26.4323 22.5299 26.4323 23.3424V23.931C26.4323 24.1289 26.3958 24.3216 26.3177 24.5039C26.2448 24.6862 26.1354 24.8477 25.9948 24.9883C25.8542 25.1289 25.6927 25.2331 25.5104 25.3112C25.3281 25.3841 25.1354 25.4258 24.9375 25.4258H2.07292C1.875 25.4258 1.6875 25.3841 1.5 25.3112C1.31771 25.2331 1.15625 25.1289 1.01562 24.9883C0.875001 24.8477 0.770832 24.6862 0.692708 24.5039C0.619791 24.3216 0.578125 24.1289 0.578125 23.931V23.3424C0.578125 22.5299 0.65625 21.7279 0.817708 20.931C0.973958 20.1341 1.21354 19.3633 1.52083 18.6133C1.83333 17.8633 2.21875 17.1549 2.66667 16.4779C3.11979 15.806 3.63542 15.181 4.20833 14.6081C4.78646 14.0299 5.41146 13.5195 6.08854 13.0716C6.76562 12.6185 7.47917 12.2383 8.22917 11.9258C8.98438 11.6185 9.76042 11.3841 10.5573 11.2227C11.3542 11.0664 12.1615 10.9883 12.974 10.9883H12.9792Z" fill="black"/>
</g>
<mask id="mask1_780_52445" style="mask-type:luminance" maskUnits="userSpaceOnUse" x="0" y="0" width="27" height="26">
<path d="M0 0H27V26H0V0Z" fill="white"/>
</mask>
<g mask="url(#mask1_780_52445)">
<path d="M12.9792 10.9883H14.0365C14.849 10.9883 15.6562 11.0664 16.4531 11.2227C17.2552 11.3841 18.026 11.6185 18.7812 11.9258C19.5312 12.2383 20.2448 12.6185 20.9219 13.0716C21.599 13.5195 22.2292 14.0299 22.8021 14.6081C23.3802 15.181 23.8906 15.806 24.3437 16.4779C24.7969 17.1549 25.1771 17.8633 25.4896 18.6133C25.8021 19.3633 26.0365 20.1341 26.1927 20.931C26.3542 21.7279 26.4323 22.5299 26.4323 23.3425V23.931C26.4323 24.1289 26.3958 24.3216 26.3177 24.5039C26.2448 24.6862 26.1354 24.8477 25.9948 24.9883C25.8542 25.1289 25.6927 25.2331 25.5104 25.3112C25.3281 25.3841 25.1354 25.4258 24.9375 25.4258H2.07292C1.875 25.4258 1.6875 25.3841 1.5 25.3112C1.31771 25.2331 1.15625 25.1289 1.01563 24.9883C0.875 24.8477 0.770833 24.6862 0.692709 24.5039C0.619792 24.3216 0.578125 24.1289 0.578125 23.931V23.3425C0.578125 22.5299 0.65625 21.7279 0.817708 20.931C0.973958 20.1341 1.21354 19.3633 1.52083 18.6133C1.83333 17.8633 2.21875 17.1549 2.66667 16.4779C3.11979 15.806 3.63542 15.181 4.20833 14.6081C4.78646 14.0299 5.41146 13.5195 6.08854 13.0716C6.76563 12.6185 7.47917 12.2383 8.22917 11.9258C8.98437 11.6185 9.76042 11.3841 10.5573 11.2227C11.3542 11.0664 12.1615 10.9883 12.974 10.9883H12.9792Z" stroke="white" stroke-width="1.148" stroke-miterlimit="10"/>
</g>
<mask id="mask2_780_52445" style="mask-type:luminance" maskUnits="userSpaceOnUse" x="6" y="0" width="16" height="16">
<path d="M6.59375 0H21.2604V15.6667H6.59375V0Z" fill="white"/>
</mask>
<g mask="url(#mask2_780_52445)">
<path d="M20.4219 7.46875C20.4219 7.92188 20.375 8.36979 20.2865 8.8125C20.1979 9.25521 20.0677 9.6875 19.8958 10.1042C19.7188 10.5208 19.5052 10.9219 19.2552 11.2969C19.0052 11.6719 18.7135 12.0208 18.3958 12.3385C18.0729 12.6615 17.724 12.9479 17.349 13.1979C16.9688 13.4479 16.5729 13.6615 16.151 13.8333C15.7344 14.0052 15.3021 14.1354 14.8542 14.224C14.4115 14.3125 13.9583 14.3594 13.5052 14.3594C13.0521 14.3594 12.6042 14.3125 12.1562 14.224C11.7135 14.1354 11.2812 14.0052 10.8594 13.8333C10.4427 13.6615 10.0417 13.4479 9.66667 13.1979C9.28646 12.9479 8.9375 12.6615 8.61979 12.3385C8.29688 12.0208 8.01042 11.6719 7.76042 11.2969C7.50521 10.9219 7.29167 10.5208 7.11979 10.1042C6.94792 9.6875 6.8125 9.25521 6.72396 8.8125C6.63542 8.36979 6.59375 7.92188 6.59375 7.46875C6.59375 7.01563 6.63542 6.56771 6.72396 6.125C6.8125 5.68229 6.94792 5.25 7.11979 4.83333C7.29167 4.41146 7.50521 4.01562 7.76042 3.64062C8.01042 3.26562 8.29688 2.91667 8.61979 2.59375C8.9375 2.27604 9.28646 1.98958 9.66667 1.73958C10.0417 1.48958 10.4427 1.27604 10.8594 1.10417C11.2812 0.927083 11.7135 0.796875 12.1562 0.708333C12.6042 0.619792 13.0521 0.578125 13.5052 0.578125C13.9583 0.578125 14.4115 0.619792 14.8542 0.708333C15.3021 0.796875 15.7344 0.927083 16.151 1.10417C16.5729 1.27604 16.9688 1.48958 17.349 1.73958C17.724 1.98958 18.0729 2.27604 18.3958 2.59375C18.7135 2.91667 19.0052 3.26562 19.2552 3.64062C19.5052 4.01562 19.7188 4.41146 19.8958 4.83333C20.0677 5.25 20.1979 5.68229 20.2865 6.125C20.375 6.56771 20.4219 7.01563 20.4219 7.46875Z" fill="black"/>
</g>
<mask id="mask3_780_52445" style="mask-type:luminance" maskUnits="userSpaceOnUse" x="0" y="0" width="27" height="26">
<path d="M0 0H27V26H0V0Z" fill="white"/>
</mask>
<g mask="url(#mask3_780_52445)">
<path d="M20.4219 7.46875C20.4219 7.92188 20.375 8.36979 20.2865 8.8125C20.1979 9.25521 20.0677 9.6875 19.8958 10.1042C19.7187 10.5208 19.5052 10.9219 19.2552 11.2969C19.0052 11.6719 18.7135 12.0208 18.3958 12.3385C18.0729 12.6615 17.724 12.9479 17.349 13.1979C16.9687 13.4479 16.5729 13.6615 16.151 13.8333C15.7344 14.0052 15.3021 14.1354 14.8542 14.224C14.4115 14.3125 13.9583 14.3594 13.5052 14.3594C13.0521 14.3594 12.6042 14.3125 12.1563 14.224C11.7135 14.1354 11.2813 14.0052 10.8594 13.8333C10.4427 13.6615 10.0417 13.4479 9.66667 13.1979C9.28646 12.9479 8.9375 12.6615 8.61979 12.3385C8.29688 12.0208 8.01042 11.6719 7.76042 11.2969C7.50521 10.9219 7.29167 10.5208 7.11979 10.1042C6.94792 9.6875 6.8125 9.25521 6.72396 8.8125C6.63542 8.36979 6.59375 7.92188 6.59375 7.46875C6.59375 7.01563 6.63542 6.56771 6.72396 6.125C6.8125 5.68229 6.94792 5.25 7.11979 4.83333C7.29167 4.41146 7.50521 4.01563 7.76042 3.64063C8.01042 3.26563 8.29688 2.91667 8.61979 2.59375C8.9375 2.27604 9.28646 1.98958 9.66667 1.73958C10.0417 1.48958 10.4427 1.27604 10.8594 1.10417C11.2813 0.927084 11.7135 0.796874 12.1563 0.708333C12.6042 0.619791 13.0521 0.578125 13.5052 0.578125C13.9583 0.578125 14.4115 0.619791 14.8542 0.708333C15.3021 0.796874 15.7344 0.927084 16.151 1.10417C16.5729 1.27604 16.9687 1.48958 17.349 1.73958C17.724 1.98958 18.0729 2.27604 18.3958 2.59375C18.7135 2.91667 19.0052 3.26563 19.2552 3.64063C19.5052 4.01563 19.7187 4.41146 19.8958 4.83333C20.0677 5.25 20.1979 5.68229 20.2865 6.125C20.375 6.56771 20.4219 7.01563 20.4219 7.46875Z" stroke="white" stroke-width="1.148" stroke-miterlimit="10"/>
</g>
</svg>
