<svg width="153" height="126" viewBox="0 0 153 126" fill="none" xmlns="http://www.w3.org/2000/svg">
<path d="M72.3826 2.84847C74.3381 -0.303679 78.924 -0.303634 80.8796 2.84847L152.115 117.673C154.181 121.003 151.786 125.308 147.866 125.308H5.39622C1.4766 125.308 -0.918951 121.003 1.1472 117.673L72.3826 2.84847Z" fill="black"/>
<path d="M47.4996 79.8984L56.0396 60.3334H59.5046L68.0096 79.8984H63.5296L61.5696 75.3134H53.9746L52.0146 79.8984H47.4996ZM57.7896 65.4784L54.9196 71.6384H60.5546L57.7896 65.4784ZM86.4116 74.8934C86.4116 75.9901 86.0966 76.9118 85.4666 77.6584C84.8366 78.4051 83.9966 78.9651 82.9466 79.3384C81.8966 79.7118 80.7416 79.8984 79.4816 79.8984H69.1216V60.3334H80.6366C81.64 60.3334 82.5033 60.5784 83.2266 61.0684C83.95 61.5584 84.51 62.1884 84.9066 62.9584C85.3033 63.7284 85.5016 64.5334 85.5016 65.3734C85.5016 66.2834 85.2333 67.1584 84.6966 67.9984C84.1833 68.8384 83.4366 69.4568 82.4566 69.8534C83.67 70.1801 84.6266 70.7751 85.3266 71.6384C86.05 72.4784 86.4116 73.5634 86.4116 74.8934ZM82.1416 74.0184C82.1416 73.5984 82.025 73.2134 81.7916 72.8634C81.5816 72.5134 81.29 72.2334 80.9166 72.0234C80.5666 71.7901 80.1583 71.6734 79.6916 71.6734H73.3566V76.3284H79.4816C79.9716 76.3284 80.415 76.2351 80.8116 76.0484C81.2083 75.8384 81.5233 75.5584 81.7566 75.2084C82.0133 74.8584 82.1416 74.4618 82.1416 74.0184ZM73.3566 63.9734V68.3484H78.8516C79.295 68.3484 79.7033 68.2668 80.0766 68.1034C80.45 67.9401 80.7416 67.6951 80.9516 67.3684C81.185 67.0418 81.3016 66.6334 81.3016 66.1434C81.3016 65.6768 81.1966 65.2918 80.9866 64.9884C80.8 64.6618 80.5316 64.4168 80.1816 64.2534C79.8316 64.0668 79.4466 63.9734 79.0266 63.9734H73.3566ZM87.3112 69.9584C87.3112 68.7684 87.5446 67.6018 88.0112 66.4584C88.4779 65.2918 89.1546 64.2418 90.0412 63.3084C90.9279 62.3751 92.0129 61.6284 93.2962 61.0684C94.5796 60.5084 96.0496 60.2284 97.7062 60.2284C99.6429 60.2284 101.323 60.6251 102.746 61.4184C104.17 62.2118 105.208 63.2384 105.861 64.4984L102.606 66.7734C102.116 65.7234 101.381 65.0001 100.401 64.6034C99.4446 64.2068 98.5112 64.0084 97.6012 64.0084C96.5979 64.0084 95.7229 64.1951 94.9762 64.5684C94.2296 64.9184 93.5996 65.3851 93.0862 65.9684C92.5962 66.5518 92.2229 67.2051 91.9662 67.9284C91.7096 68.6518 91.5812 69.3751 91.5812 70.0984C91.5812 70.9151 91.7329 71.6968 92.0362 72.4434C92.3396 73.1901 92.7479 73.8551 93.2612 74.4384C93.7979 75.0218 94.4396 75.4768 95.1862 75.8034C95.9329 76.1301 96.7612 76.2934 97.6712 76.2934C98.2779 76.2934 98.9079 76.2001 99.5612 76.0134C100.238 75.8268 100.856 75.5234 101.416 75.1034C101.976 74.6834 102.408 74.1351 102.711 73.4584L106.211 75.5234C105.768 76.5034 105.068 77.3318 104.111 78.0084C103.178 78.6851 102.128 79.1984 100.961 79.5484C99.8179 79.8984 98.6746 80.0734 97.5312 80.0734C96.0379 80.0734 94.6612 79.7934 93.4012 79.2334C92.1412 78.6501 91.0562 77.8801 90.1462 76.9234C89.2362 75.9434 88.5362 74.8584 88.0462 73.6684C87.5562 72.4551 87.3112 71.2184 87.3112 69.9584ZM61.2767 105.898V86.3334H70.4817C71.8117 86.3334 73.0017 86.6601 74.0517 87.3134C75.1017 87.9668 75.9184 88.7951 76.5017 89.7984C77.1084 90.7784 77.4117 91.8168 77.4117 92.9134C77.4117 94.0334 77.12 95.0951 76.5367 96.0984C75.9767 97.1018 75.195 97.9184 74.1917 98.5484C73.1884 99.1784 72.01 99.4934 70.6567 99.4934H65.5117V105.898H61.2767ZM65.5117 95.7834H70.3767C70.89 95.7834 71.3567 95.6784 71.7767 95.4684C72.1967 95.2351 72.5234 94.9084 72.7567 94.4884C72.99 94.0451 73.1067 93.5201 73.1067 92.9134C73.1067 92.2834 72.9667 91.7584 72.6867 91.3384C72.4067 90.9184 72.045 90.6034 71.6017 90.3934C71.1817 90.1601 70.715 90.0434 70.2017 90.0434H65.5117V95.7834ZM91.7882 91.8284C91.5549 91.6184 91.1466 91.3618 90.5632 91.0584C89.9799 90.7551 89.3032 90.4984 88.5332 90.2884C87.7632 90.0551 86.9699 89.9384 86.1532 89.9384C85.0566 89.9384 84.2282 90.1018 83.6682 90.4284C83.1316 90.7318 82.8632 91.1868 82.8632 91.7934C82.8632 92.2601 83.0382 92.6334 83.3882 92.9134C83.7616 93.1934 84.2982 93.4384 84.9982 93.6484C85.7216 93.8584 86.5966 94.0918 87.6232 94.3484C88.9999 94.6984 90.1899 95.0951 91.1932 95.5384C92.2199 95.9818 93.0016 96.5651 93.5382 97.2884C94.0982 98.0118 94.3782 98.9801 94.3782 100.193C94.3782 101.29 94.1682 102.223 93.7482 102.993C93.3282 103.74 92.7449 104.347 91.9982 104.813C91.2749 105.28 90.4349 105.618 89.4782 105.828C88.5449 106.038 87.5649 106.143 86.5382 106.143C84.9516 106.143 83.3766 105.922 81.8132 105.478C80.2499 105.035 78.8616 104.428 77.6482 103.658L79.5382 99.9834C79.8649 100.287 80.3666 100.625 81.0432 100.998C81.7432 101.348 82.5716 101.663 83.5282 101.943C84.5082 102.2 85.5349 102.328 86.6082 102.328C87.6582 102.328 88.4516 102.177 88.9882 101.873C89.5482 101.57 89.8282 101.15 89.8282 100.613C89.8282 100.1 89.5949 99.6918 89.1282 99.3884C88.6849 99.0851 88.0666 98.8168 87.2732 98.5834C86.4799 98.3501 85.5349 98.0934 84.4382 97.8134C83.1082 97.4634 81.9999 97.0668 81.1132 96.6234C80.2499 96.1568 79.5966 95.5851 79.1532 94.9084C78.7332 94.2084 78.5232 93.3568 78.5232 92.3534C78.5232 91.0001 78.8616 89.8684 79.5382 88.9584C80.2382 88.0484 81.1716 87.3601 82.3382 86.8934C83.5282 86.4268 84.8232 86.1934 86.2232 86.1934C87.7166 86.1934 89.0932 86.4151 90.3532 86.8584C91.6132 87.2784 92.6982 87.7801 93.6082 88.3634L91.7882 91.8284Z" fill="white"/>
</svg>
