<svg width="32" height="32" viewBox="0 0 32 32" fill="none" xmlns="http://www.w3.org/2000/svg">
<path d="M11.5414 23.8164C10.9224 23.8164 10.4224 24.3164 10.4224 24.9295C10.4224 25.5485 10.9224 26.0485 11.5414 26.0485H20.47C21.089 26.0485 21.589 25.5485 21.589 24.9295C21.589 24.3164 21.089 23.8164 20.47 23.8164H11.5414Z" fill="black"/>
<mask id="mask0_780_52479" style="mask-type:luminance" maskUnits="userSpaceOnUse" x="0" y="0" width="32" height="32">
<path d="M0 0H32V32H0V0Z" fill="white"/>
</mask>
<g mask="url(#mask0_780_52479)">
<path fill-rule="evenodd" clip-rule="evenodd" d="M16.0063 0C14.9528 0 13.9944 0.303571 12.9528 0.803571C11.9528 1.29167 10.7921 2.0119 9.33968 2.91667L6.26825 4.82143C4.89325 5.67262 3.79801 6.35714 2.95278 7.00595C2.07182 7.67262 1.3992 8.35714 0.917062 9.24405C0.428968 10.131 0.208728 11.0774 0.107538 12.1905C0.00634804 13.2679 0.00634766 14.5893 0.00634766 16.25V18.6488C0.00634766 21.4821 0.00634688 23.7202 0.232538 25.4702C0.46468 27.2619 0.952777 28.7083 2.05992 29.8571C3.17301 31.006 4.58968 31.5179 6.33968 31.7619C8.04206 32 10.2087 32 12.9409 32H19.0659C21.804 32 23.9706 32 25.6671 31.7619C27.423 31.5179 28.8337 31.006 29.9468 29.8571C31.054 28.7083 31.548 27.2619 31.7802 25.4702C32.0063 23.7202 32.0063 21.4821 32.0063 18.6488V16.25C32.0063 14.5893 32.0063 13.2679 31.9052 12.1905C31.798 11.0774 31.5837 10.131 31.0956 9.24405C30.6075 8.35714 29.9349 7.67262 29.0599 7.00595C28.2147 6.35714 27.1135 5.67262 25.7444 4.82143L22.6671 2.91667C21.2206 2.0119 20.0599 1.29167 19.054 0.803571C18.0183 0.303571 17.0599 0 16.0063 0ZM10.4706 4.84524C11.9825 3.90476 13.0421 3.24405 13.929 2.81548C14.798 2.39286 15.4111 2.23214 16.0063 2.23214C16.6016 2.23214 17.2147 2.39286 18.0778 2.81548C18.9706 3.24405 20.0302 3.90476 21.5421 4.84524L24.5183 6.69048C25.9528 7.57738 26.9528 8.20238 27.7028 8.77381C28.429 9.33333 28.8516 9.79167 29.1373 10.3155C29.423 10.8452 29.5956 11.4583 29.679 12.3988C29.7742 13.3631 29.7742 14.5774 29.7742 16.3036V18.5655C29.7742 21.5 29.7683 23.5952 29.5659 25.1786C29.3635 26.7381 28.9825 27.6429 28.3456 28.3036C27.7147 28.9583 26.8516 29.3452 25.3635 29.5536C23.8337 29.7679 21.8218 29.7679 18.9825 29.7679H13.0302C10.1909 29.7679 8.17897 29.7679 6.6492 29.5536C5.16111 29.3452 4.29801 28.9583 3.66706 28.3036C3.03016 27.6429 2.64921 26.7381 2.44682 25.1786C2.23849 23.5952 2.23849 21.5 2.23849 18.5655V16.3036C2.23849 14.5774 2.23849 13.3631 2.32778 12.3988C2.41706 11.4583 2.58373 10.8452 2.8754 10.3155C3.16111 9.79167 3.57778 9.33333 4.30992 8.77381C5.05397 8.20238 6.05992 7.57738 7.48849 6.69048L10.4706 4.84524Z" fill="black"/>
</g>
</svg>
