<svg width="13" height="14" viewBox="0 0 13 14" fill="none" xmlns="http://www.w3.org/2000/svg">
<path d="M12.6927 12.9638L9.70832 9.0888C10.0156 8.76067 10.276 8.4013 10.4844 8.01067C10.6979 7.61484 10.8594 7.20338 10.9635 6.77109C11.0729 6.3388 11.1198 5.9013 11.1146 5.45338C11.1042 5.01067 11.0417 4.57317 10.9167 4.14609C10.7969 3.719 10.625 3.31276 10.3958 2.92734C10.1667 2.54192 9.89582 2.19296 9.57811 1.87526C9.2604 1.55755 8.90624 1.28671 8.51561 1.05755C8.12499 0.82838 7.71353 0.651297 7.28124 0.526297C6.84374 0.401297 6.40103 0.333589 5.9479 0.317963C5.49478 0.307547 5.04686 0.349213 4.60936 0.448172C4.16665 0.547129 3.74478 0.698173 3.33853 0.901297C2.93749 1.10442 2.56769 1.35442 2.22915 1.6513C1.89061 1.94817 1.59894 2.28151 1.34894 2.6513C1.09894 3.0263 0.895819 3.41692 0.749985 3.8388C0.604152 4.26067 0.510402 4.69296 0.473944 5.13567C0.437485 5.57838 0.458318 6.02109 0.536444 6.45859C0.619777 6.89609 0.749985 7.31796 0.937485 7.71901C1.12499 8.12526 1.36457 8.50026 1.65103 8.84401C1.93748 9.19296 2.2604 9.49505 2.62499 9.76067C2.98957 10.0211 3.3854 10.2398 3.80207 10.4013C4.22394 10.568 4.66144 10.6773 5.10936 10.7346C5.55728 10.7919 6.00519 10.7919 6.45832 10.7346C6.90624 10.6825 7.34374 10.568 7.7604 10.4065C8.18228 10.2398 8.57811 10.0263 8.94269 9.76067L11.875 13.5732C11.9583 13.6825 12.0729 13.7503 12.2135 13.7659C12.3542 13.7867 12.4844 13.7555 12.5989 13.6721C12.7083 13.5888 12.776 13.4742 12.7969 13.3388C12.8177 13.1982 12.7812 13.0732 12.6979 12.9638H12.6927ZM1.3229 5.54713C1.3229 4.9638 1.43228 4.40651 1.66144 3.87005C1.8854 3.33359 2.20832 2.85963 2.63019 2.44817C3.04686 2.03671 3.53124 1.719 4.07811 1.49505C4.62499 1.2763 5.19269 1.16171 5.78644 1.16171C6.38019 1.16171 6.9479 1.2763 7.49478 1.49505C8.04165 1.719 8.52603 2.03671 8.94269 2.44817C9.36457 2.85963 9.68749 3.33359 9.91144 3.87005C10.1406 4.40651 10.25 4.9638 10.25 5.54713C10.25 6.13046 10.1406 6.68775 9.91144 7.22421C9.68749 7.76067 9.36457 8.23463 8.94269 8.64609C8.52603 9.05755 8.04165 9.37525 7.49478 9.59921C6.9479 9.81796 6.38019 9.93255 5.78644 9.93255C5.19269 9.93255 4.62499 9.81796 4.07811 9.59921C3.53124 9.37525 3.04686 9.05755 2.63019 8.64609C2.20832 8.23463 1.8854 7.76067 1.66144 7.22421C1.43228 6.68775 1.3229 6.13046 1.3229 5.54713Z" fill="black"/>
</svg>
