<svg width="88" height="81" viewBox="0 0 88 81" fill="none" xmlns="http://www.w3.org/2000/svg">
<path d="M82.7539 0.970728C81.7798 1.01346 80.8316 1.28457 79.9765 1.62698C79.1302 1.96709 74.2577 4.04675 67.0625 7.12307C59.8672 10.1994 50.5139 14.2054 41.2422 18.1778C22.6987 26.1225 4.47653 33.9395 4.47653 33.9395L4.60935 33.8887C4.60935 33.8887 3.50955 34.2563 2.3945 35.0332C1.83698 35.4217 1.23718 35.9232 0.746066 36.6543C0.254955 37.3855 -0.10408 38.4216 0.0312226 39.5176C0.506468 43.3671 4.49607 44.459 4.49607 44.459L4.51169 44.4668L22.3164 50.5606C22.7703 52.0749 27.7166 68.5839 28.8047 72.0801C29.4056 74.013 29.968 75.1281 30.5547 75.8887C30.8482 76.2693 31.1559 76.5639 31.4961 76.7793C31.6312 76.8649 31.7734 76.9291 31.914 76.9864H31.9218C31.9391 76.994 31.9554 76.9947 31.9726 77.002L31.9258 76.9903C31.9584 77.0035 31.9907 77.0257 32.0234 77.0371C32.0869 77.0594 32.1258 77.0586 32.207 77.0762C34.2461 77.7882 35.9336 76.4668 35.9336 76.4668L36.0039 76.4121L46.9414 66.2676L64.6914 80.1074L64.914 80.209C68.0209 81.5885 70.8307 80.8189 72.3867 79.5528C73.9427 78.2866 74.5547 76.6543 74.5547 76.6543L74.6211 76.4824L87.664 8.50198C87.9978 6.9811 88.0452 5.66648 87.7304 4.47854C87.4157 3.29061 86.651 2.25794 85.6914 1.68557C84.7318 1.1132 83.728 0.927993 82.7539 0.970728ZM82.8593 5.03713C83.255 5.01881 83.5482 5.06404 83.6406 5.11917C83.733 5.17429 83.7745 5.16704 83.8633 5.50198C83.952 5.83692 84 6.54239 83.7578 7.64651L83.75 7.66995L70.7812 75.2559C70.7505 75.3239 70.4803 75.9491 69.8633 76.4512C69.2338 76.9634 68.5337 77.3632 66.6758 76.584L47.2656 61.4473L46.7187 61.0176L46.707 61.0293L40.9023 56.6739L73.5234 18.2949C73.7741 18.0008 73.9342 17.6404 73.9843 17.2572C74.0344 16.874 73.9725 16.4845 73.806 16.1357C73.6395 15.787 73.3755 15.494 73.046 15.2921C72.7165 15.0902 72.3355 14.9881 71.9492 14.9981C71.5717 15.0079 71.2047 15.1243 70.8906 15.334L23.6875 46.8028L5.85544 40.6973C5.85544 40.6973 4.08473 39.7119 3.99997 39.0254C3.99527 38.9874 3.97436 39.0218 4.06638 38.8848C4.15839 38.7478 4.38968 38.5165 4.67966 38.3145C5.25962 37.9104 5.92185 37.666 5.92185 37.666L5.98825 37.6426L6.05466 37.6153C6.05466 37.6153 24.2778 29.7978 42.8203 21.8535C52.0915 17.8814 61.4432 13.8783 68.6367 10.8028C75.8283 7.72799 81.0248 5.5148 81.4648 5.33792C81.9657 5.13732 82.4637 5.05546 82.8593 5.03713ZM61.2265 26.584L36.4883 55.6895L36.4765 55.7012C36.4379 55.7477 36.4014 55.7959 36.3672 55.8457C36.3279 55.8999 36.2914 55.9559 36.2578 56.0137C36.1188 56.2496 36.0297 56.5115 35.9961 56.7832C35.996 56.7884 35.996 56.7936 35.9961 56.7989L32.7734 71.291C32.7198 71.1345 32.6823 71.0772 32.625 70.8926V70.8887C31.6014 67.5998 26.9347 52.0303 26.289 49.877L61.2265 26.584ZM39.2812 60.459L43.7265 63.7949L37.1953 69.8496L39.2812 60.459Z" fill="black"/>
</svg>
