<svg width="84" height="84" viewBox="0 0 84 84" fill="none" xmlns="http://www.w3.org/2000/svg">
<path d="M10 0C4.50097 0 0 4.50097 0 10V74C0 79.499 4.50097 84 10 84H74C79.499 84 84 79.499 84 74V10C84 4.50097 79.499 0 74 0H10ZM10 4H74C77.337 4 80 6.66303 80 10V74C80 77.337 77.337 80 74 80H10C6.66303 80 4 77.337 4 74V10C4 6.66303 6.66303 4 10 4ZM42.3945 14C34.3515 14.0613 27.8434 16.8085 23.6211 22.1797C19.792 27.0477 17.9317 33.7647 17.8633 41.9648V41.9805V41.9961C17.9317 50.2363 19.791 56.9543 23.6211 61.8242C27.8453 67.1929 34.3523 69.9387 42.3594 70H42.375H42.3906C49.4967 69.9475 54.9014 68.0122 59.0898 63.8281C64.4029 58.5195 64.4076 51.7551 62.582 47.4883V47.4844C61.4866 44.9435 59.5245 42.8009 56.9844 41.2695C56.4555 40.9501 55.0293 40.5775 54.3359 40.2461C54.3399 39.3951 54.4394 39.1613 54.3281 38.2969C54.0119 35.8392 53.2719 33.1239 51.4023 30.918C49.5328 28.7121 46.5072 27.2212 42.4688 27.1953H42.4609H42.4531C38.2488 27.1953 34.5609 29.0383 32.3672 32.3789L35.7109 34.5742C37.1965 32.3119 39.3239 31.1964 42.4492 31.1953C45.5865 31.2173 47.2158 32.1637 48.3516 33.5039C49.4885 34.8454 50.1036 36.7903 50.3633 38.8086C50.3653 38.8246 50.3613 38.8392 50.3633 38.8555C48.5639 38.489 46.6863 38.2734 44.7305 38.2734C44.0793 38.2734 43.4204 38.2916 42.7461 38.332C38.9241 38.5527 36.0889 39.7943 34.2734 41.6484C32.4573 43.5033 31.7505 45.8787 31.8633 48.0039C31.9968 50.5049 33.2487 52.7265 35.1445 54.1992C37.0403 55.672 39.5396 56.4492 42.2969 56.4492C42.5532 56.4492 42.8073 56.4439 43.0625 56.4297C46.3126 56.2499 49.1542 55.0066 51.0938 52.7422C52.8818 50.6547 53.8102 47.7861 54.1914 44.418C54.3538 44.523 54.693 44.5617 54.9141 44.6953H54.918C56.8299 45.848 58.1737 47.3673 58.9062 49.0664C60.1396 51.952 60.3792 56.8821 56.2617 60.9961C52.8136 64.4406 48.8058 65.9457 42.375 65.9961C35.2398 65.9377 30.1865 63.6992 26.7656 59.3516C23.6582 55.4006 21.9333 49.6273 21.8672 41.9805C21.9333 34.375 23.6586 28.601 26.7656 24.6523V24.6484C30.1844 20.2994 35.2349 18.0623 42.4102 18.0039C49.5815 18.0623 54.7317 20.3089 58.2812 24.6758C59.988 26.774 61.3218 29.4504 62.2109 32.6719L66.0664 31.6094C65.0554 27.947 63.4999 24.7501 61.3867 22.1523C57.0353 16.799 50.4649 14.0613 42.4258 14H42.4102H42.3945ZM44.7305 42.2734C46.6184 42.2734 48.3941 42.4484 49.9844 42.8086H49.9883C50.2667 42.8715 50.1235 42.8936 50.3594 42.9492C50.3574 42.982 50.3594 43.293 50.3594 43.293V43.2969C50.1021 46.5101 49.2561 48.738 48.0547 50.1406C46.8533 51.5432 45.2717 52.2993 42.8438 52.4336C42.6629 52.4436 42.4805 52.4492 42.2969 52.4492C40.2942 52.4492 38.6774 51.8817 37.5977 51.043C36.5179 50.2042 35.9318 49.15 35.8594 47.793C35.8001 46.6762 36.135 45.4644 37.1328 44.4453C38.1307 43.4262 39.8846 42.5062 42.9805 42.3281H42.9844C43.578 42.2925 44.1577 42.2734 44.7305 42.2734Z" fill="black"/>
</svg>
